<svg xmlns="http://www.w3.org/2000/svg" xmlns:xlink="http://www.w3.org/1999/xlink" width="500" zoomAndPan="magnify" viewBox="0 0 375 374.999991" height="500" preserveAspectRatio="xMidYMid meet" version="1.0"><defs><clipPath id="id1"><path d="M 60.472656 28.640625 L 78 28.640625 L 78 46 L 60.472656 46 Z M 60.472656 28.640625 " clip-rule="nonzero"/></clipPath></defs><path fill="#ffe24b" d="M 143.394531 276.136719 C 126.582031 259.320312 126.582031 197.835938 143.394531 181.019531 C 145.808594 178.609375 148.878906 176.410156 152.476562 174.429688 C 145.914062 177.144531 140.464844 180.421875 136.660156 184.226562 C 119.847656 201.042969 119.847656 262.527344 136.660156 279.34375 C 158.332031 301.015625 233.085938 305.429688 265.097656 287.496094 C 230.351562 301.578125 163.664062 296.40625 143.394531 276.136719 " fill-opacity="1" fill-rule="nonzero"/><path fill="#ffe24b" d="M 287.96875 286.027344 C 262.851562 317.121094 156.359375 314.292969 128.097656 286.027344 C 108.699219 266.628906 108.699219 195.6875 128.097656 176.285156 C 156.359375 148.023438 262.851562 145.195312 287.96875 176.285156 C 305.210938 197.625 305.210938 264.691406 287.96875 286.027344 Z M 102.414062 280.824219 C 97.941406 280.824219 94.316406 277.195312 94.316406 272.722656 C 94.316406 268.25 97.941406 264.625 102.414062 264.625 C 106.890625 264.625 110.515625 268.25 110.515625 272.722656 C 110.515625 277.195312 106.890625 280.824219 102.414062 280.824219 Z M 100.269531 243.125 C 104.746094 243.125 108.371094 246.753906 108.371094 251.226562 C 108.371094 255.703125 104.746094 259.328125 100.269531 259.328125 C 95.796875 259.328125 92.171875 255.703125 92.171875 251.226562 C 92.171875 246.753906 95.796875 243.125 100.269531 243.125 Z M 293.441406 173.355469 C 262.53125 135.097656 131.488281 138.570312 96.710938 173.355469 C 72.839844 197.226562 72.839844 284.527344 96.710938 308.398438 C 131.488281 343.179688 262.53125 346.65625 293.441406 308.398438 C 314.65625 282.140625 314.65625 199.613281 293.441406 173.355469 " fill-opacity="1" fill-rule="nonzero"/><path fill="#ffe24b" d="M 180.128906 148.246094 L 244.757812 87.886719 L 184.40625 152.519531 Z M 180.128906 148.246094 " fill-opacity="1" fill-rule="nonzero"/><path fill="#ffe24b" d="M 180.128906 152.519531 L 68.847656 36.949219 L 184.40625 148.246094 Z M 180.128906 152.519531 " fill-opacity="1" fill-rule="nonzero"/><path fill="#ffe24b" d="M 253.058594 87.886719 C 253.058594 92.472656 249.339844 96.1875 244.757812 96.1875 C 240.171875 96.1875 236.457031 92.472656 236.457031 87.886719 C 236.457031 83.304688 240.171875 79.585938 244.757812 79.585938 C 249.339844 79.585938 253.058594 83.304688 253.058594 87.886719 " fill-opacity="1" fill-rule="nonzero"/><g clip-path="url(#id1)"><path fill="#ffe24b" d="M 77.148438 36.949219 C 77.148438 41.53125 73.429688 45.25 68.847656 45.25 C 64.261719 45.25 60.546875 41.53125 60.546875 36.949219 C 60.546875 32.359375 64.261719 28.644531 68.847656 28.644531 C 73.429688 28.644531 77.148438 32.359375 77.148438 36.949219 " fill-opacity="1" fill-rule="nonzero"/></g></svg>